<svg viewBox="0 0 178 60" fill="none" xmlns="http://www.w3.org/2000/svg">
  <defs>
    <radialGradient id="sun1" cx="24" cy="20" r="18" gradientUnits="userSpaceOnUse">
      <stop offset="0" stop-color="#fde68a" stop-opacity="0.5"/>
      <stop offset="0.6" stop-color="#fde68a" stop-opacity="0.12"/>
      <stop offset="1" stop-color="#fde68a" stop-opacity="0"/>
    </radialGradient>
    <linearGradient id="calG1" x1="3" y1="8" x2="45" y2="50" gradientUnits="userSpaceOnUse">
      <stop offset="0" stop-color="#7aaed4"/>
      <stop offset="1" stop-color="#4e7fa8"/>
    </linearGradient>
  </defs>
  <rect x="3" y="10" width="42" height="42" rx="7" stroke="url(#calG1)" stroke-width="2.4" fill="none"/>
  <line x1="3" y1="22" x2="45" y2="22" stroke="url(#calG1)" stroke-width="2.4"/>
  <line x1="15" y1="5" x2="15" y2="14" stroke="#7aaed4" stroke-width="2.4" stroke-linecap="round"/>
  <line x1="33" y1="5" x2="33" y2="14" stroke="#7aaed4" stroke-width="2.4" stroke-linecap="round"/>
  <circle cx="24" cy="22" r="10" fill="url(#sun1)"/>
  <circle cx="24" cy="36" r="6" fill="#fbbf24"/>
  <circle cx="24" cy="36" r="3" fill="#f59e0b"/>
  <path d="M62.42 16.00L62.42 14.95L62.84 14.91Q63.22 14.87 63.22 14.54L63.22 8.50L62.48 8.46L62.48 7.36L66.03 7.36Q67.54 7.36 68.34 7.91Q69.15 8.47 69.15 9.75Q69.15 10.63 68.69 11.20Q68.23 11.78 67.59 12.04Q68.06 12.20 68.33 12.83L69.27 14.87L70.01 14.89L70.01 16.00L66.80 16.00L66.80 14.95L67.17 14.91Q67.47 14.87 67.47 14.67Q67.47 14.60 67.42 14.49L66.81 13.19Q66.67 12.87 66.49 12.73Q66.32 12.59 65.99 12.59L64.81 12.59L64.81 14.86L65.65 14.89L65.65 16.00ZM64.81 11.36L65.94 11.36Q67.54 11.36 67.54 9.93Q67.54 9.11 67.12 8.86Q66.69 8.62 65.76 8.62L64.81 8.62Z M79.62 16.00L73.44 16.00L73.44 14.95L73.87 14.91Q74.25 14.87 74.25 14.54L74.25 8.50L73.51 8.46L73.51 7.36L79.46 7.36L79.46 9.51L78.13 9.60L78.13 9.08Q78.13 8.86 78.07 8.77Q78.00 8.68 77.76 8.68L75.83 8.68L75.83 10.90L78.84 10.90L78.84 12.23L75.83 12.23L75.83 14.66L77.93 14.66Q78.16 14.66 78.22 14.56Q78.29 14.47 78.29 14.25L78.29 13.60L79.62 13.69Z M86.22 7.36L88.43 13.23L88.45 13.23L90.68 7.36L93.25 7.36L93.25 8.41L92.82 8.45Q92.43 8.49 92.45 8.90L92.77 14.86L93.58 14.89L93.58 16.00L90.44 16.00L90.44 14.95L90.91 14.91Q91.26 14.88 91.25 14.57L91.00 9.98L90.98 9.98L88.98 15.17L87.74 15.17L85.76 10.03L85.74 10.03L85.48 14.86L86.32 14.89L86.32 16.00L83.26 16.00L83.26 14.95L83.72 14.91Q84.02 14.88 84.05 14.56L84.40 8.51L83.61 8.46L83.61 7.36Z M97.92 14.48L97.92 8.50L97.18 8.46L97.18 7.36L100.32 7.36L100.32 8.41L99.89 8.45Q99.52 8.49 99.52 8.86L99.52 14.86L100.26 14.89L100.26 16.00L97.11 16.00L97.11 14.95L97.54 14.91Q97.74 14.88 97.83 14.80Q97.92 14.71 97.92 14.48Z M103.96 16.00L103.96 14.95L104.43 14.91Q104.77 14.88 104.77 14.54L104.77 8.50L104.03 8.46L104.03 7.36L106.37 7.36L110.05 13.32L110.07 13.32L110.07 8.50L109.22 8.46L109.22 7.36L112.39 7.36L112.39 8.41L111.92 8.45Q111.61 8.47 111.61 8.85L111.61 16.00L110.09 16.00L106.33 9.94L106.30 9.94L106.30 14.86L107.15 14.89L107.15 16.00Z M116.02 16.00L116.02 14.95L116.44 14.91Q116.82 14.87 116.82 14.54L116.82 8.50L116.08 8.46L116.08 7.36L119.64 7.36Q121.55 7.36 122.63 8.37Q123.70 9.38 123.70 11.37Q123.70 12.61 123.37 13.52Q123.05 14.44 122.49 14.96Q121.37 16.00 119.71 16.00ZM118.41 8.62L118.41 14.75L119.73 14.75Q120.85 14.75 121.48 13.95Q122.10 13.14 122.10 11.61Q122.10 8.62 119.56 8.62Z M133.69 16.00L127.52 16.00L127.52 14.95L127.95 14.91Q128.33 14.87 128.33 14.54L128.33 8.50L127.59 8.46L127.59 7.36L133.54 7.36L133.54 9.51L132.21 9.60L132.21 9.08Q132.21 8.86 132.15 8.77Q132.08 8.68 131.84 8.68L129.91 8.68L129.91 10.90L132.91 10.90L132.91 12.23L129.91 12.23L129.91 14.66L132.00 14.66Q132.24 14.66 132.30 14.56Q132.37 14.47 132.37 14.25L132.37 13.60L133.69 13.69Z M137.49 16.00L137.49 14.95L137.92 14.91Q138.30 14.87 138.30 14.54L138.30 8.50L137.56 8.46L137.56 7.36L141.10 7.36Q142.61 7.36 143.42 7.91Q144.22 8.47 144.22 9.75Q144.22 10.63 143.76 11.20Q143.30 11.78 142.66 12.04Q143.13 12.20 143.41 12.83L144.34 14.87L145.08 14.89L145.08 16.00L141.87 16.00L141.87 14.95L142.25 14.91Q142.55 14.87 142.55 14.67Q142.55 14.60 142.50 14.49L141.88 13.19Q141.74 12.87 141.57 12.73Q141.39 12.59 141.07 12.59L139.88 12.59L139.88 14.86L140.73 14.89L140.73 16.00ZM139.88 11.36L141.01 11.36Q142.61 11.36 142.61 9.93Q142.61 9.11 142.19 8.86Q141.77 8.62 140.83 8.62L139.88 8.62Z" fill="#b0b8c4"/>
  <path d="M71.16 47.30L71.16 28.23L67.88 28.23Q66.91 28.23 66.91 29.53L66.91 31.50L62.63 31.21L62.63 24.07L84.60 24.07L84.60 31.21L80.31 31.50L80.31 29.53Q80.31 28.82 80.10 28.52Q79.89 28.23 79.09 28.23L76.24 28.23L76.24 48.30L79.56 48.43L79.56 52.00L67.71 52.00L67.71 48.60L69.94 48.47Q71.16 48.35 71.16 47.30Z M94.17 48.93Q98.75 48.93 98.75 41.54Q98.75 37.80 97.72 35.87Q96.69 33.94 94.28 33.94Q91.86 33.94 90.73 35.79Q89.59 37.64 89.59 40.83Q89.59 46.75 91.78 48.26Q92.74 48.93 94.17 48.93ZM84.51 41.42Q84.51 38.31 85.44 36.02Q86.36 33.73 87.91 32.51Q90.90 30.24 94.51 30.24Q97.03 30.24 98.77 31.06Q100.51 31.88 101.50 32.95Q102.49 34.02 103.18 36.06Q103.87 38.10 103.87 40.87Q103.87 46.67 101.06 49.65Q98.25 52.63 93.86 52.63Q89.47 52.63 86.99 49.80Q84.51 46.96 84.51 41.42Z M117.23 30.24Q119.04 30.24 120.67 30.75L120.67 26.51Q120.67 25.58 119.58 25.50L117.78 25.37L117.78 22.05L125.59 22.05L125.59 47.59Q125.63 48.56 126.64 48.56L128.11 48.64L128.11 52.00L121.30 52.00L121.30 49.52L121.18 49.48Q119.29 52.55 115.47 52.55Q110.68 52.55 108.75 49.35Q106.98 46.46 106.98 42.26Q106.98 36.80 109.69 33.52Q112.40 30.24 117.23 30.24ZM120.67 45.45L120.67 34.57Q119.16 33.90 117.48 33.90Q114.71 33.90 113.43 36.12Q112.15 38.35 112.15 41.79Q112.15 48.85 116.68 48.85Q118.41 48.85 119.54 47.86Q120.67 46.88 120.67 45.45Z M149.40 31.71L149.40 47.34Q149.40 48.01 149.63 48.26Q149.86 48.51 150.45 48.56L151.80 48.64L151.80 52.00L145.12 52.00L145.12 49.56L144.99 49.52Q142.89 52.55 139.24 52.55Q134.95 52.55 132.90 49.82Q130.84 47.09 130.84 42.34Q130.84 36.63 133.61 33.44Q136.38 30.24 141.93 30.24Q145.50 30.24 149.40 31.71ZM144.53 45.32L144.53 34.44Q143.35 33.90 141.30 33.90Q138.48 33.90 137.22 36.17Q135.96 38.43 135.96 42.17Q135.96 48.98 140.33 48.98Q142.18 48.98 143.35 47.86Q144.53 46.75 144.53 45.32Z M169.81 51.20L169.81 48.01Q167.50 51.29 163.01 51.29Q156.50 51.29 156.50 44.02L156.50 35.58Q156.50 34.44 155.45 34.40L154.11 34.32L154.11 30.87L161.50 30.87L161.50 42.93Q161.50 45.15 162.13 46.29Q162.76 47.42 164.73 47.42Q166.71 47.42 167.90 46.20Q169.10 44.99 169.10 43.26L169.10 35.66Q169.10 34.95 168.87 34.67Q168.64 34.40 168.05 34.40L166.71 34.32L166.71 30.87L174.10 30.87L174.10 51.20Q174.10 56.28 171.64 58.64Q169.18 60.99 164.21 60.99Q159.23 60.99 156.46 59.60L156.46 53.76L160.45 53.43L160.45 55.44Q160.45 56.58 161.50 56.98Q162.55 57.38 164.40 57.38Q169.81 57.38 169.81 51.20Z" fill="#e5e7eb"/>
</svg>