<svg viewBox="0 0 346 58" fill="none" xmlns="http://www.w3.org/2000/svg">
  <defs>
    <linearGradient id="swash6" x1="0" y1="52" x2="346" y2="52" gradientUnits="userSpaceOnUse">
      <stop offset="0" stop-color="#6498c8" stop-opacity="0"/>
      <stop offset="0.3" stop-color="#A2ECFB" stop-opacity="0.6"/>
      <stop offset="0.7" stop-color="#6498c8" stop-opacity="0.8"/>
      <stop offset="1" stop-color="#6498c8" stop-opacity="0"/>
    </linearGradient>
  </defs>
  <path d="M9.47 44.00L9.47 40.27L10.99 40.14Q12.32 40.00 12.32 38.85L12.32 17.46L9.70 17.32L9.70 13.41L22.26 13.41Q27.60 13.41 30.45 15.39Q33.30 17.37 33.30 21.87Q33.30 25.00 31.67 27.03Q30.03 29.05 27.78 29.97Q29.44 30.57 30.40 32.78L33.71 40.00L36.34 40.09L36.34 44.00L24.97 44.00L24.97 40.27L26.31 40.14Q27.37 40.00 27.37 39.31Q27.37 39.03 27.18 38.66L25.02 34.06Q24.51 32.91 23.89 32.43Q23.27 31.95 22.12 31.95L17.94 31.95L17.94 39.95L20.93 40.09L20.93 44.00ZM17.94 27.58L21.94 27.58Q27.60 27.58 27.60 22.52Q27.60 19.62 26.10 18.75Q24.61 17.87 21.29 17.87L17.94 17.87Z M49.86 20.17Q53.31 20.17 55.33 21.85Q57.36 23.53 57.36 26.57Q57.36 28.59 56.48 30.13Q55.61 31.67 54.32 32.55Q53.03 33.42 51.19 33.97Q48.11 34.89 44.25 34.89Q44.39 37.33 45.77 38.83Q47.15 40.32 50.00 40.32Q52.85 40.32 55.70 38.30L57.45 42.02Q56.53 42.85 54.34 43.72Q52.16 44.60 49.35 44.60Q43.74 44.60 41.12 41.49Q38.50 38.39 38.50 32.96Q38.50 27.53 41.49 23.85Q44.48 20.17 49.86 20.17ZM47.77 30.68Q47.77 30.68 48.61 30.53Q49.45 30.38 50.87 29.35Q52.30 28.31 52.30 26.89Q52.30 24.08 49.54 24.08Q46.96 24.08 45.58 26.13Q44.20 28.18 44.06 31.03Q46.09 30.98 47.77 30.68Z M60.30 24.59L60.30 20.86L68.08 20.86L68.08 23.85Q70.65 20.17 75.14 20.17Q79.62 20.17 81.19 23.85Q83.76 20.17 88.18 20.17Q91.49 20.17 93.28 22.17Q95.08 24.17 95.08 28.18L95.08 40.18L97.70 40.32L97.70 44.00L86.75 44.00L86.75 40.50L88.27 40.37Q88.96 40.27 89.26 39.98Q89.56 39.68 89.60 38.89L89.60 29.37Q89.60 26.84 89.03 25.62Q88.45 24.40 86.34 24.40Q84.22 24.40 83.09 25.69Q81.97 26.98 81.97 29.14L81.97 40.18L84.50 40.32L84.50 44.00L73.64 44.00L73.64 40.50L75.16 40.37Q75.85 40.27 76.17 39.98Q76.49 39.68 76.49 38.85L76.49 29.37Q76.49 26.84 75.92 25.62Q75.34 24.40 73.20 24.40Q71.07 24.40 69.96 25.74Q68.86 27.07 68.86 29.05L68.86 40.18L71.34 40.32L71.34 44.00L60.49 44.00L60.49 40.50L62.00 40.37Q62.69 40.27 63.02 39.98Q63.34 39.68 63.34 38.85L63.38 38.85L63.38 26.15Q63.38 25.37 63.13 25.07Q62.88 24.77 62.23 24.73Z M108.74 20.86L108.74 40.18L111.36 40.32L111.36 44.00L100.41 44.00L100.41 40.50L101.93 40.37Q103.27 40.23 103.27 38.89L103.27 26.11Q103.27 25.32 103.01 25.05Q102.76 24.77 102.12 24.77L100.51 24.68L100.51 20.86ZM102.94 16.88Q102.94 16.88 102.46 16.41Q101.98 15.94 101.98 14.47Q101.98 13.00 102.94 12.01Q103.91 11.02 105.47 11.02Q107.04 11.02 108.03 12.01Q109.02 13.00 109.02 14.47Q109.02 15.94 108.03 16.88Q107.04 17.83 105.47 17.83Q103.91 17.83 102.94 16.88Z M113.75 24.54L113.75 20.86L121.53 20.86L121.53 23.85Q122.72 22.15 124.70 21.16Q126.68 20.17 128.98 20.17Q132.48 20.17 134.38 22.17Q136.29 24.17 136.29 28.18L136.29 40.18L138.92 40.32L138.92 44.00L127.97 44.00L127.97 40.50L129.49 40.37Q130.18 40.27 130.50 39.98Q130.82 39.68 130.82 38.85L130.82 29.37Q130.82 26.84 130.04 25.62Q129.26 24.40 127.07 24.40Q124.89 24.40 123.60 25.78Q122.31 27.16 122.31 29.05L122.31 40.18L124.93 40.32L124.93 44.00L113.98 44.00L113.98 40.50L115.50 40.37Q116.19 40.27 116.51 39.98Q116.84 39.68 116.84 38.85L116.84 26.11Q116.84 24.73 115.69 24.68Z M153.18 20.17Q155.15 20.17 156.95 20.72L156.95 16.08Q156.95 15.07 155.75 14.97L153.77 14.84L153.77 11.20L162.33 11.20L162.33 39.17Q162.38 40.23 163.48 40.23L165.09 40.32L165.09 44.00L157.64 44.00L157.64 41.29L157.50 41.24Q155.43 44.60 151.24 44.60Q146.00 44.60 143.88 41.10Q141.95 37.93 141.95 33.33Q141.95 27.35 144.92 23.76Q147.89 20.17 153.18 20.17ZM156.95 36.82L156.95 24.91Q155.29 24.17 153.45 24.17Q150.42 24.17 149.01 26.61Q147.61 29.05 147.61 32.82Q147.61 40.55 152.58 40.55Q154.46 40.55 155.71 39.47Q156.95 38.39 156.95 36.82Z M179.30 20.17Q182.75 20.17 184.78 21.85Q186.80 23.53 186.80 26.57Q186.80 28.59 185.93 30.13Q185.05 31.67 183.77 32.55Q182.48 33.42 180.64 33.97Q177.56 34.89 173.69 34.89Q173.83 37.33 175.21 38.83Q176.59 40.32 179.44 40.32Q182.29 40.32 185.15 38.30L186.89 42.02Q185.97 42.85 183.79 43.72Q181.60 44.60 178.80 44.60Q173.19 44.60 170.56 41.49Q167.94 38.39 167.94 32.96Q167.94 27.53 170.93 23.85Q173.92 20.17 179.30 20.17ZM177.21 30.68Q177.21 30.68 178.05 30.53Q178.89 30.38 180.32 29.35Q181.74 28.31 181.74 26.89Q181.74 24.08 178.98 24.08Q176.41 24.08 175.03 26.13Q173.65 28.18 173.51 31.03Q175.53 30.98 177.21 30.68Z M192.87 38.85L192.87 26.11Q192.87 25.37 192.62 25.07Q192.37 24.77 191.72 24.73L189.79 24.59L189.79 20.86L197.57 20.86L197.57 24.31Q198.39 22.52 200.14 21.34Q201.89 20.17 204.17 20.17Q206.44 20.17 208.51 21.18L208.51 28.04L204.24 28.36L204.24 26.24Q204.24 25.32 203.78 25.09Q203.27 24.86 202.53 24.86Q200.69 24.86 199.52 26.18Q198.35 27.49 198.35 29.51L198.35 40.18L202.35 40.37L202.35 44.00L190.02 44.00L190.02 40.50L191.54 40.37Q192.23 40.27 192.55 39.98Q192.87 39.68 192.87 38.85Z" fill="#8899aa"/>
  <path d="M221.78 38.85L221.78 17.96L218.20 17.96Q217.14 17.96 217.14 19.39L217.14 21.55L212.45 21.23L212.45 13.41L236.50 13.41L236.50 21.23L231.81 21.55L231.81 19.39Q231.81 18.61 231.58 18.29Q231.35 17.96 230.48 17.96L227.35 17.96L227.35 39.95L230.98 40.09L230.98 44.00L218.01 44.00L218.01 40.27L220.45 40.14Q221.78 40.00 221.78 38.85Z M246.99 40.64Q252.01 40.64 252.01 32.55Q252.01 28.45 250.88 26.34Q249.75 24.22 247.11 24.22Q244.46 24.22 243.22 26.24Q241.98 28.27 241.98 31.76Q241.98 38.25 244.37 39.91Q245.43 40.64 246.99 40.64ZM236.41 32.41Q236.41 29.00 237.42 26.50Q238.44 23.99 240.14 22.66Q243.40 20.17 247.36 20.17Q250.12 20.17 252.03 21.07Q253.94 21.97 255.02 23.14Q256.10 24.31 256.86 26.54Q257.62 28.77 257.62 31.81Q257.62 38.16 254.54 41.42Q251.45 44.69 246.65 44.69Q241.84 44.69 239.13 41.59Q236.41 38.48 236.41 32.41Z M272.25 20.17Q274.22 20.17 276.02 20.72L276.02 16.08Q276.02 15.07 274.82 14.97L272.84 14.84L272.84 11.20L281.40 11.20L281.40 39.17Q281.45 40.23 282.55 40.23L284.16 40.32L284.16 44.00L276.71 44.00L276.71 41.29L276.57 41.24Q274.50 44.60 270.31 44.60Q265.07 44.60 262.95 41.10Q261.02 37.93 261.02 33.33Q261.02 27.35 263.99 23.76Q266.96 20.17 272.25 20.17ZM276.02 36.82L276.02 24.91Q274.36 24.17 272.52 24.17Q269.49 24.17 268.08 26.61Q266.68 29.05 266.68 32.82Q266.68 40.55 271.65 40.55Q273.53 40.55 274.78 39.47Q276.02 38.39 276.02 36.82Z M307.48 21.78L307.48 38.89Q307.48 39.63 307.74 39.91Q307.99 40.18 308.63 40.23L310.10 40.32L310.10 44.00L302.79 44.00L302.79 41.33L302.65 41.29Q300.35 44.60 296.35 44.60Q291.66 44.60 289.40 41.61Q287.15 38.62 287.15 33.42Q287.15 27.16 290.19 23.67Q293.22 20.17 299.29 20.17Q303.20 20.17 307.48 21.78ZM302.15 36.69L302.15 24.77Q300.86 24.17 298.60 24.17Q295.52 24.17 294.14 26.66Q292.76 29.14 292.76 33.24Q292.76 40.69 297.55 40.69Q299.57 40.69 300.86 39.47Q302.15 38.25 302.15 36.69Z M329.84 43.13L329.84 39.63Q327.31 43.22 322.39 43.22Q315.26 43.22 315.26 35.26L315.26 26.01Q315.26 24.77 314.11 24.73L312.63 24.63L312.63 20.86L320.73 20.86L320.73 34.06Q320.73 36.50 321.42 37.74Q322.11 38.99 324.27 38.99Q326.43 38.99 327.75 37.65Q329.06 36.32 329.06 34.43L329.06 26.11Q329.06 25.32 328.80 25.02Q328.55 24.73 327.91 24.73L326.43 24.63L326.43 20.86L334.53 20.86L334.53 43.13Q334.53 48.69 331.84 51.27Q329.15 53.84 323.70 53.84Q318.25 53.84 315.21 52.33L315.21 45.93L319.58 45.56L319.58 47.77Q319.58 49.01 320.73 49.45Q321.88 49.89 323.90 49.89Q329.84 49.89 329.84 43.13Z" fill="#6498c8"/>
  <path d="M4 52 Q104 48, 173 52 Q242 56, 342 50" stroke="url(#swash6)" stroke-width="2" stroke-linecap="round" fill="none"/>
</svg>