<svg viewBox="0 0 112 78" fill="none" xmlns="http://www.w3.org/2000/svg">
  <defs>
    <linearGradient id="rtGrad" x1="0" y1="10" x2="82" y2="50" gradientUnits="userSpaceOnUse">
      <stop offset="0" stop-color="#6498c8"/>
      <stop offset="0.55" stop-color="#6498c8"/>
      <stop offset="0.55" stop-color="#A2ECFB"/>
      <stop offset="1" stop-color="#A2ECFB"/>
    </linearGradient>
  </defs>
  <path d="M4.71 50.00L4.71 7.47L28.02 7.47Q32.74 7.47 35.87 9.14Q39.00 10.82 40.55 13.82Q42.10 16.83 42.10 20.74Q42.10 24.89 40.24 28.08Q38.38 31.28 34.84 32.95L43.52 50.00L33.29 50.00L25.79 34.50L13.95 34.50L13.95 50.00ZM13.95 27.18L26.78 27.18Q29.57 27.18 31.12 25.48Q32.67 23.77 32.67 20.86Q32.67 19.00 31.99 17.67Q31.31 16.33 30.01 15.65Q28.71 14.97 26.78 14.97L13.95 14.97Z" fill="#6498c8"/>
  <path d="M56.45 50.00L56.45 15.22L42.81 15.22L42.81 7.47L79.45 7.47L79.45 15.22L65.75 15.22L65.75 50.00Z" fill="#A2ECFB"/>
  <line x1="-30.540503906250002" y1="58" x2="111.54250390625" y2="58" stroke="#6498c8" stroke-width="1" stroke-opacity="0.3"/>
  <path d="M-29.57 72.00L-29.57 64.00L-26.83 64.00Q-25.90 64.00 -25.30 64.32Q-24.69 64.64 -24.40 65.19Q-24.11 65.75 -24.11 66.47Q-24.11 67.18 -24.40 67.73Q-24.69 68.28 -25.29 68.58Q-25.43 68.66 -25.59 68.71L-23.79 72.00L-24.98 72.00L-26.64 68.89Q-26.73 68.90 -26.83 68.90L-28.55 68.90L-28.55 72.00ZM-28.55 67.99L-26.88 67.99Q-26.24 67.99 -25.86 67.80Q-25.48 67.62 -25.30 67.28Q-25.12 66.94 -25.12 66.47Q-25.12 65.99 -25.30 65.64Q-25.48 65.29 -25.86 65.09Q-26.25 64.89 -26.89 64.89L-28.55 64.89Z M-18.99 72.00L-18.99 64.00L-14.12 64.00L-14.12 64.90L-17.97 64.90L-17.97 67.51L-14.38 67.51L-14.38 68.41L-17.97 68.41L-17.97 71.10L-14.07 71.10L-14.07 72.00Z M-8.88 72.00L-8.88 64.00L-7.43 64.00L-5.46 69.05Q-5.39 69.22 -5.30 69.49Q-5.21 69.75 -5.11 70.07Q-5.02 70.38 -4.92 70.68Q-4.90 70.78 -4.87 70.87Q-4.85 70.79 -4.82 70.71Q-4.73 70.40 -4.63 70.09Q-4.53 69.78 -4.44 69.50Q-4.35 69.23 -4.28 69.05L-2.34 64.00L-0.88 64.00L-0.88 72.00L-1.88 72.00L-1.88 67.43Q-1.88 67.18 -1.88 66.87Q-1.88 66.55 -1.87 66.20Q-1.86 65.85 -1.85 65.49Q-1.85 65.29 -1.85 65.09Q-1.92 65.31 -1.99 65.54Q-2.12 65.93 -2.24 66.29Q-2.36 66.65 -2.47 66.94Q-2.58 67.24 -2.65 67.43L-4.44 72.00L-5.33 72.00L-7.14 67.43Q-7.22 67.24 -7.32 66.95Q-7.42 66.67 -7.54 66.31Q-7.66 65.96 -7.79 65.57Q-7.87 65.34 -7.95 65.10Q-7.94 65.27 -7.94 65.44Q-7.93 65.79 -7.93 66.15Q-7.92 66.51 -7.92 66.84Q-7.91 67.17 -7.91 67.43L-7.91 72.00Z M5.57 64.00L5.57 72.00L4.55 72.00L4.55 64.00Z M11.01 72.00L11.01 64.00L12.21 64.00L15.47 69.12Q15.59 69.31 15.78 69.63Q15.96 69.94 16.17 70.33Q16.29 70.55 16.41 70.79Q16.38 70.53 16.37 70.28Q16.35 69.86 16.35 69.51Q16.34 69.15 16.34 68.91L16.34 64.00L17.36 64.00L17.36 72.00L16.15 72.00L13.25 67.45Q13.05 67.13 12.85 66.79Q12.65 66.46 12.39 66.00Q12.20 65.67 11.95 65.22Q11.97 65.61 11.99 65.96Q12.01 66.47 12.02 66.84Q12.03 67.22 12.03 67.43L12.03 72.00Z M25.29 72.00L22.80 72.00L22.80 64.00L25.40 64.00Q26.57 64.00 27.40 64.48Q28.23 64.95 28.67 65.85Q29.11 66.74 29.11 67.98Q29.11 69.23 28.67 70.13Q28.22 71.03 27.37 71.52Q26.51 72.00 25.29 72.00ZM23.82 71.10L25.23 71.10Q26.21 71.10 26.85 70.72Q27.49 70.35 27.81 69.65Q28.12 68.95 28.12 67.98Q28.12 67.02 27.81 66.33Q27.50 65.64 26.87 65.27Q26.25 64.90 25.33 64.90L23.82 64.90Z M34.23 72.00L34.23 64.00L39.11 64.00L39.11 64.90L35.25 64.90L35.25 67.51L38.85 67.51L38.85 68.41L35.25 68.41L35.25 71.10L39.16 71.10L39.16 72.00Z M44.35 72.00L44.35 64.00L47.08 64.00Q48.02 64.00 48.62 64.32Q49.23 64.64 49.52 65.19Q49.81 65.75 49.81 66.47Q49.81 67.18 49.52 67.73Q49.23 68.28 48.63 68.58Q48.49 68.66 48.33 68.71L50.13 72.00L48.94 72.00L47.28 68.89Q47.19 68.90 47.09 68.90L45.37 68.90L45.37 72.00ZM45.37 67.99L47.04 67.99Q47.68 67.99 48.06 67.80Q48.44 67.62 48.62 67.28Q48.80 66.94 48.80 66.47Q48.80 65.99 48.62 65.64Q48.44 65.29 48.06 65.09Q47.67 64.89 47.03 64.89L45.37 64.89Z M61.08 64.90L61.08 64.00L67.13 64.00L67.13 64.90L64.62 64.90L64.62 72.00L63.60 72.00L63.60 64.90Z M75.04 72.11Q74.01 72.11 73.21 71.61Q72.40 71.11 71.94 70.19Q71.48 69.27 71.48 68.00Q71.48 66.73 71.94 65.81Q72.40 64.89 73.21 64.39Q74.01 63.89 75.04 63.89Q76.06 63.89 76.86 64.39Q77.66 64.89 78.12 65.81Q78.58 66.73 78.58 68.00Q78.58 69.27 78.12 70.19Q77.66 71.11 76.86 71.61Q76.06 72.11 75.04 72.11ZM75.04 71.16Q75.75 71.16 76.33 70.80Q76.90 70.44 77.25 69.73Q77.59 69.02 77.59 68.00Q77.59 66.97 77.25 66.27Q76.90 65.56 76.33 65.20Q75.75 64.83 75.04 64.83Q74.32 64.83 73.74 65.20Q73.16 65.57 72.81 66.27Q72.47 66.98 72.47 68.00Q72.47 69.02 72.81 69.73Q73.16 70.43 73.74 70.80Q74.32 71.16 75.04 71.16Z M86.20 72.00L83.70 72.00L83.70 64.00L86.30 64.00Q87.47 64.00 88.30 64.48Q89.13 64.95 89.58 65.85Q90.02 66.74 90.02 67.98Q90.02 69.23 89.57 70.13Q89.13 71.03 88.27 71.52Q87.42 72.00 86.20 72.00ZM84.72 71.10L86.14 71.10Q87.11 71.10 87.76 70.72Q88.40 70.35 88.71 69.65Q89.03 68.95 89.03 67.98Q89.03 67.02 88.72 66.33Q88.40 65.64 87.78 65.27Q87.16 64.90 86.23 64.90L84.72 64.90Z M94.08 72.00L96.98 64.00L98.17 64.00L101.11 72.00L100.03 72.00L99.23 69.77L95.94 69.77L95.16 72.00ZM98.92 68.87L98.34 67.25Q98.18 66.81 97.98 66.15Q97.81 65.61 97.57 64.81Q97.34 65.62 97.17 66.17Q96.95 66.84 96.81 67.25L96.25 68.87Z M107.30 72.00L107.30 68.72L104.36 64.00L105.54 64.00L107.12 66.58Q107.39 67.02 107.60 67.41Q107.71 67.62 107.82 67.89Q107.93 67.61 108.05 67.39Q108.26 66.99 108.51 66.58L110.09 64.00L111.26 64.00L108.32 68.72L108.32 72.00Z" fill="#9ca3af"/>
</svg>