<svg viewBox="0 0 182 62" fill="none" xmlns="http://www.w3.org/2000/svg">
  <defs>
    <linearGradient id="chk5" x1="8" y1="38" x2="44" y2="14" gradientUnits="userSpaceOnUse">
      <stop offset="0" stop-color="#d97706"/>
      <stop offset="0.5" stop-color="#f59e0b"/>
      <stop offset="1" stop-color="#fbbf24"/>
    </linearGradient>
  </defs>
  <circle cx="26" cy="30" r="23" stroke="#d97706" stroke-width="1.8" fill="none" stroke-opacity="0.5"/>
  <circle cx="26" cy="30" r="19" stroke="#f59e0b" stroke-width="2.4" fill="none" stroke-opacity="0.7" stroke-dasharray="4 6"/>
  <path d="M12 30 L22 42 L43 16" stroke="url(#chk5)" stroke-width="5.5" stroke-linecap="round" stroke-linejoin="round" fill="none"/>
  <path d="M66.58 20.00L66.58 18.54L67.17 18.49Q67.69 18.43 67.69 17.98L67.69 9.61L66.67 9.56L66.67 8.03L71.58 8.03Q73.67 8.03 74.78 8.80Q75.90 9.58 75.90 11.34Q75.90 12.57 75.26 13.36Q74.62 14.15 73.74 14.51Q74.39 14.74 74.77 15.61L76.06 18.43L77.09 18.47L77.09 20.00L72.64 20.00L72.64 18.54L73.16 18.49Q73.58 18.43 73.58 18.16Q73.58 18.06 73.51 17.91L72.66 16.11Q72.46 15.66 72.22 15.47Q71.98 15.28 71.53 15.28L69.89 15.28L69.89 18.42L71.06 18.47L71.06 20.00ZM69.89 13.57L71.45 13.57Q73.67 13.57 73.67 11.59Q73.67 10.46 73.08 10.12Q72.50 9.78 71.20 9.78L69.89 9.78Z M89.67 20.00L81.12 20.00L81.12 18.54L81.71 18.49Q82.24 18.43 82.24 17.98L82.24 9.61L81.21 9.56L81.21 8.03L89.45 8.03L89.45 11.02L87.62 11.14L87.62 10.42Q87.62 10.12 87.53 9.99Q87.44 9.87 87.10 9.87L84.43 9.87L84.43 12.94L88.59 12.94L88.59 14.78L84.43 14.78L84.43 18.15L87.33 18.15Q87.65 18.15 87.74 18.01Q87.83 17.88 87.83 17.57L87.83 16.67L89.67 16.80Z M98.09 8.03L101.15 16.17L101.19 16.17L104.27 8.03L107.83 8.03L107.83 9.49L107.24 9.54Q106.70 9.60 106.72 10.17L107.17 18.42L108.28 18.47L108.28 20.00L103.94 20.00L103.94 18.54L104.59 18.49Q105.08 18.45 105.06 18.02L104.72 11.67L104.68 11.67L101.91 18.85L100.20 18.85L97.46 11.74L97.43 11.74L97.07 18.42L98.24 18.47L98.24 20.00L93.99 20.00L93.99 18.54L94.64 18.49Q95.05 18.45 95.09 18.00L95.57 9.63L94.48 9.56L94.48 8.03Z M113.57 17.89L113.57 9.61L112.55 9.56L112.55 8.03L116.90 8.03L116.90 9.49L116.31 9.54Q115.79 9.60 115.79 10.12L115.79 18.42L116.81 18.47L116.81 20.00L112.46 20.00L112.46 18.54L113.05 18.49Q113.32 18.45 113.45 18.34Q113.57 18.22 113.57 17.89Z M121.22 20.00L121.22 18.54L121.87 18.49Q122.34 18.45 122.34 17.98L122.34 9.61L121.31 9.56L121.31 8.03L124.55 8.03L129.65 16.29L129.68 16.29L129.68 9.61L128.50 9.56L128.50 8.03L132.89 8.03L132.89 9.49L132.24 9.54Q131.81 9.58 131.81 10.10L131.81 20.00L129.70 20.00L124.50 11.61L124.46 11.61L124.46 18.42L125.63 18.47L125.63 20.00Z M137.19 20.00L137.19 18.54L137.78 18.49Q138.31 18.43 138.31 17.98L138.31 9.61L137.28 9.56L137.28 8.03L142.21 8.03Q144.86 8.03 146.34 9.43Q147.83 10.84 147.83 13.59Q147.83 15.30 147.38 16.57Q146.93 17.84 146.15 18.56Q144.61 20.00 142.30 20.00ZM140.50 9.78L140.50 18.27L142.34 18.27Q143.89 18.27 144.75 17.16Q145.61 16.04 145.61 13.92Q145.61 9.78 142.10 9.78Z M160.95 20.00L152.40 20.00L152.40 18.54L152.99 18.49Q153.52 18.43 153.52 17.98L153.52 9.61L152.49 9.56L152.49 8.03L160.73 8.03L160.73 11.02L158.90 11.14L158.90 10.42Q158.90 10.12 158.81 9.99Q158.72 9.87 158.38 9.87L155.71 9.87L155.71 12.94L159.87 12.94L159.87 14.78L155.71 14.78L155.71 18.15L158.61 18.15Q158.93 18.15 159.02 18.01Q159.11 17.88 159.11 17.57L159.11 16.67L160.95 16.80Z M165.49 20.00L165.49 18.54L166.08 18.49Q166.60 18.43 166.60 17.98L166.60 9.61L165.58 9.56L165.58 8.03L170.49 8.03Q172.58 8.03 173.69 8.80Q174.81 9.58 174.81 11.34Q174.81 12.57 174.17 13.36Q173.53 14.15 172.65 14.51Q173.30 14.74 173.68 15.61L174.97 18.43L176.00 18.47L176.00 20.00L171.55 20.00L171.55 18.54L172.07 18.49Q172.49 18.43 172.49 18.16Q172.49 18.06 172.42 17.91L171.57 16.11Q171.37 15.66 171.13 15.47Q170.89 15.28 170.44 15.28L168.80 15.28L168.80 18.42L169.97 18.47L169.97 20.00ZM168.80 13.57L170.36 13.57Q172.58 13.57 172.58 11.59Q172.58 10.46 171.99 10.12Q171.41 9.78 170.11 9.78L168.80 9.78Z" fill="#b0b8c4"/>
  <path d="M75.16 49.30L75.16 30.23L71.88 30.23Q70.91 30.23 70.91 31.53L70.91 33.50L66.63 33.21L66.63 26.07L88.60 26.07L88.60 33.21L84.31 33.50L84.31 31.53Q84.31 30.82 84.10 30.52Q83.89 30.23 83.09 30.23L80.24 30.23L80.24 50.30L83.56 50.43L83.56 54.00L71.71 54.00L71.71 50.60L73.94 50.47Q75.16 50.35 75.16 49.30Z M98.17 50.93Q102.75 50.93 102.75 43.54Q102.75 39.80 101.72 37.87Q100.69 35.94 98.28 35.94Q95.86 35.94 94.73 37.79Q93.59 39.64 93.59 42.83Q93.59 48.75 95.78 50.26Q96.74 50.93 98.17 50.93ZM88.51 43.42Q88.51 40.31 89.44 38.02Q90.36 35.73 91.91 34.51Q94.90 32.24 98.51 32.24Q101.03 32.24 102.77 33.06Q104.51 33.88 105.50 34.95Q106.49 36.02 107.18 38.06Q107.87 40.10 107.87 42.87Q107.87 48.67 105.06 51.65Q102.25 54.63 97.86 54.63Q93.47 54.63 90.99 51.80Q88.51 48.96 88.51 43.42Z M121.23 32.24Q123.04 32.24 124.67 32.75L124.67 28.51Q124.67 27.58 123.58 27.50L121.78 27.37L121.78 24.05L129.59 24.05L129.59 49.59Q129.63 50.56 130.64 50.56L132.11 50.64L132.11 54.00L125.30 54.00L125.30 51.52L125.18 51.48Q123.29 54.55 119.47 54.55Q114.68 54.55 112.75 51.35Q110.98 48.46 110.98 44.26Q110.98 38.80 113.69 35.52Q116.40 32.24 121.23 32.24ZM124.67 47.45L124.67 36.57Q123.16 35.90 121.48 35.90Q118.71 35.90 117.43 38.12Q116.15 40.35 116.15 43.79Q116.15 50.85 120.68 50.85Q122.41 50.85 123.54 49.86Q124.67 48.88 124.67 47.45Z M153.40 33.71L153.40 49.34Q153.40 50.01 153.63 50.26Q153.86 50.51 154.45 50.56L155.80 50.64L155.80 54.00L149.12 54.00L149.12 51.56L148.99 51.52Q146.89 54.55 143.24 54.55Q138.95 54.55 136.90 51.82Q134.84 49.09 134.84 44.34Q134.84 38.63 137.61 35.44Q140.38 32.24 145.93 32.24Q149.50 32.24 153.40 33.71ZM148.53 47.32L148.53 36.44Q147.35 35.90 145.30 35.90Q142.48 35.90 141.22 38.17Q139.96 40.43 139.96 44.17Q139.96 50.98 144.33 50.98Q146.18 50.98 147.35 49.86Q148.53 48.75 148.53 47.32Z M173.81 53.20L173.81 50.01Q171.50 53.29 167.01 53.29Q160.50 53.29 160.50 46.02L160.50 37.58Q160.50 36.44 159.45 36.40L158.11 36.32L158.11 32.87L165.50 32.87L165.50 44.93Q165.50 47.15 166.13 48.29Q166.76 49.42 168.73 49.42Q170.71 49.42 171.90 48.20Q173.10 46.99 173.10 45.26L173.10 37.66Q173.10 36.95 172.87 36.67Q172.64 36.40 172.05 36.40L170.71 36.32L170.71 32.87L178.10 32.87L178.10 53.20Q178.10 58.28 175.64 60.64Q173.18 62.99 168.21 62.99Q163.23 62.99 160.46 61.60L160.46 55.76L164.45 55.43L164.45 57.44Q164.45 58.58 165.50 58.98Q166.55 59.38 168.40 59.38Q173.81 59.38 173.81 53.20Z" fill="#e5e7eb"/>
</svg>