<svg viewBox="0 0 182 68" fill="none" xmlns="http://www.w3.org/2000/svg">
  <defs>
    <linearGradient id="chk5" x1="8" y1="38" x2="44" y2="14" gradientUnits="userSpaceOnUse">
      <stop offset="0" stop-color="#d97706"/>
      <stop offset="0.5" stop-color="#f59e0b"/>
      <stop offset="1" stop-color="#fbbf24"/>
    </linearGradient>
  </defs>
  <circle cx="26" cy="30" r="23" stroke="#d97706" stroke-width="1.8" fill="none" stroke-opacity="0.5"/>
  <circle cx="26" cy="30" r="19" stroke="#f59e0b" stroke-width="2.4" fill="none" stroke-opacity="0.7" stroke-dasharray="4 6"/>
  <path d="M12 30 L22 42 L43 16" stroke="url(#chk5)" stroke-width="5.5" stroke-linecap="round" stroke-linejoin="round" fill="none"/>
  <path d="M66.64 20.00L66.64 18.38L67.30 18.32Q67.88 18.26 67.88 17.76L67.88 8.46L66.74 8.40L66.74 6.70L72.20 6.70Q74.52 6.70 75.76 7.56Q77.00 8.42 77.00 10.38Q77.00 11.74 76.29 12.62Q75.58 13.50 74.60 13.90Q75.32 14.16 75.74 15.12L77.18 18.26L78.32 18.30L78.32 20.00L73.38 20.00L73.38 18.38L73.96 18.32Q74.42 18.26 74.42 17.96Q74.42 17.84 74.34 17.68L73.40 15.68Q73.18 15.18 72.91 14.97Q72.64 14.76 72.14 14.76L70.32 14.76L70.32 18.24L71.62 18.30L71.62 20.00ZM70.32 12.86L72.06 12.86Q74.52 12.86 74.52 10.66Q74.52 9.40 73.87 9.02Q73.22 8.64 71.78 8.64L70.32 8.64Z M91.20 20.00L81.70 20.00L81.70 18.38L82.36 18.32Q82.94 18.26 82.94 17.76L82.94 8.46L81.80 8.40L81.80 6.70L90.96 6.70L90.96 10.02L88.92 10.16L88.92 9.36Q88.92 9.02 88.82 8.88Q88.72 8.74 88.34 8.74L85.38 8.74L85.38 12.16L90.00 12.16L90.00 14.20L85.38 14.20L85.38 17.94L88.60 17.94Q88.96 17.94 89.06 17.79Q89.16 17.64 89.16 17.30L89.16 16.30L91.20 16.44Z M99.46 6.70L102.86 15.74L102.90 15.74L106.32 6.70L110.28 6.70L110.28 8.32L109.62 8.38Q109.02 8.44 109.04 9.08L109.54 18.24L110.78 18.30L110.78 20.00L105.96 20.00L105.96 18.38L106.68 18.32Q107.22 18.28 107.20 17.80L106.82 10.74L106.78 10.74L103.70 18.72L101.80 18.72L98.76 10.82L98.72 10.82L98.32 18.24L99.62 18.30L99.62 20.00L94.90 20.00L94.90 18.38L95.62 18.32Q96.08 18.28 96.12 17.78L96.66 8.48L95.44 8.40L95.44 6.70Z M115.56 17.66L115.56 8.46L114.42 8.40L114.42 6.70L119.26 6.70L119.26 8.32L118.60 8.38Q118.02 8.44 118.02 9.02L118.02 18.24L119.16 18.30L119.16 20.00L114.32 20.00L114.32 18.38L114.98 18.32Q115.28 18.28 115.42 18.15Q115.56 18.02 115.56 17.66Z M122.96 20.00L122.96 18.38L123.68 18.32Q124.20 18.28 124.20 17.76L124.20 8.46L123.06 8.40L123.06 6.70L126.66 6.70L132.32 15.88L132.36 15.88L132.36 8.46L131.04 8.40L131.04 6.70L135.92 6.70L135.92 8.32L135.20 8.38Q134.72 8.42 134.72 9.00L134.72 20.00L132.38 20.00L126.60 10.68L126.56 10.68L126.56 18.24L127.86 18.30L127.86 20.00Z M139.60 20.00L139.60 18.38L140.26 18.32Q140.84 18.26 140.84 17.76L140.84 8.46L139.70 8.40L139.70 6.70L145.18 6.70Q148.12 6.70 149.77 8.26Q151.42 9.82 151.42 12.88Q151.42 14.78 150.92 16.19Q150.42 17.60 149.56 18.40Q147.84 20.00 145.28 20.00ZM143.28 8.64L143.28 18.08L145.32 18.08Q147.04 18.08 148.00 16.84Q148.96 15.60 148.96 13.24Q148.96 8.64 145.06 8.64Z M164.90 20.00L155.40 20.00L155.40 18.38L156.06 18.32Q156.64 18.26 156.64 17.76L156.64 8.46L155.50 8.40L155.50 6.70L164.66 6.70L164.66 10.02L162.62 10.16L162.62 9.36Q162.62 9.02 162.52 8.88Q162.42 8.74 162.04 8.74L159.08 8.74L159.08 12.16L163.70 12.16L163.70 14.20L159.08 14.20L159.08 17.94L162.30 17.94Q162.66 17.94 162.76 17.79Q162.86 17.64 162.86 17.30L162.86 16.30L164.90 16.44Z M168.84 20.00L168.84 18.38L169.50 18.32Q170.08 18.26 170.08 17.76L170.08 8.46L168.94 8.40L168.94 6.70L174.40 6.70Q176.72 6.70 177.96 7.56Q179.20 8.42 179.20 10.38Q179.20 11.74 178.49 12.62Q177.78 13.50 176.80 13.90Q177.52 14.16 177.94 15.12L179.38 18.26L180.52 18.30L180.52 20.00L175.58 20.00L175.58 18.38L176.16 18.32Q176.62 18.26 176.62 17.96Q176.62 17.84 176.54 17.68L175.60 15.68Q175.38 15.18 175.11 14.97Q174.84 14.76 174.34 14.76L172.52 14.76L172.52 18.24L173.82 18.30L173.82 20.00ZM172.52 12.86L174.26 12.86Q176.72 12.86 176.72 10.66Q176.72 9.40 176.07 9.02Q175.42 8.64 173.98 8.64L172.52 8.64Z" fill="#b0b8c4"/>
  <path d="M75.16 49.30L75.16 30.23L71.88 30.23Q70.91 30.23 70.91 31.53L70.91 33.50L66.63 33.21L66.63 26.07L88.60 26.07L88.60 33.21L84.31 33.50L84.31 31.53Q84.31 30.82 84.10 30.52Q83.89 30.23 83.09 30.23L80.24 30.23L80.24 50.30L83.56 50.43L83.56 54.00L71.71 54.00L71.71 50.60L73.94 50.47Q75.16 50.35 75.16 49.30Z M98.17 50.93Q102.75 50.93 102.75 43.54Q102.75 39.80 101.72 37.87Q100.69 35.94 98.28 35.94Q95.86 35.94 94.73 37.79Q93.59 39.64 93.59 42.83Q93.59 48.75 95.78 50.26Q96.74 50.93 98.17 50.93ZM88.51 43.42Q88.51 40.31 89.44 38.02Q90.36 35.73 91.91 34.51Q94.90 32.24 98.51 32.24Q101.03 32.24 102.77 33.06Q104.51 33.88 105.50 34.95Q106.49 36.02 107.18 38.06Q107.87 40.10 107.87 42.87Q107.87 48.67 105.06 51.65Q102.25 54.63 97.86 54.63Q93.47 54.63 90.99 51.80Q88.51 48.96 88.51 43.42Z M121.23 32.24Q123.04 32.24 124.67 32.75L124.67 28.51Q124.67 27.58 123.58 27.50L121.78 27.37L121.78 24.05L129.59 24.05L129.59 49.59Q129.63 50.56 130.64 50.56L132.11 50.64L132.11 54.00L125.30 54.00L125.30 51.52L125.18 51.48Q123.29 54.55 119.47 54.55Q114.68 54.55 112.75 51.35Q110.98 48.46 110.98 44.26Q110.98 38.80 113.69 35.52Q116.40 32.24 121.23 32.24ZM124.67 47.45L124.67 36.57Q123.16 35.90 121.48 35.90Q118.71 35.90 117.43 38.12Q116.15 40.35 116.15 43.79Q116.15 50.85 120.68 50.85Q122.41 50.85 123.54 49.86Q124.67 48.88 124.67 47.45Z M153.40 33.71L153.40 49.34Q153.40 50.01 153.63 50.26Q153.86 50.51 154.45 50.56L155.80 50.64L155.80 54.00L149.12 54.00L149.12 51.56L148.99 51.52Q146.89 54.55 143.24 54.55Q138.95 54.55 136.90 51.82Q134.84 49.09 134.84 44.34Q134.84 38.63 137.61 35.44Q140.38 32.24 145.93 32.24Q149.50 32.24 153.40 33.71ZM148.53 47.32L148.53 36.44Q147.35 35.90 145.30 35.90Q142.48 35.90 141.22 38.17Q139.96 40.43 139.96 44.17Q139.96 50.98 144.33 50.98Q146.18 50.98 147.35 49.86Q148.53 48.75 148.53 47.32Z M173.81 53.20L173.81 50.01Q171.50 53.29 167.01 53.29Q160.50 53.29 160.50 46.02L160.50 37.58Q160.50 36.44 159.45 36.40L158.11 36.32L158.11 32.87L165.50 32.87L165.50 44.93Q165.50 47.15 166.13 48.29Q166.76 49.42 168.73 49.42Q170.71 49.42 171.90 48.20Q173.10 46.99 173.10 45.26L173.10 37.66Q173.10 36.95 172.87 36.67Q172.64 36.40 172.05 36.40L170.71 36.32L170.71 32.87L178.10 32.87L178.10 53.20Q178.10 58.28 175.64 60.64Q173.18 62.99 168.21 62.99Q163.23 62.99 160.46 61.60L160.46 55.76L164.45 55.43L164.45 57.44Q164.45 58.58 165.50 58.98Q166.55 59.38 168.40 59.38Q173.81 59.38 173.81 53.20Z" fill="#e5e7eb"/>
</svg>